<svg width="20" height="19" viewBox="0 0 20 19" fill="none" xmlns="http://www.w3.org/2000/svg">
    <path fill-rule="evenodd" clip-rule="evenodd" d="M9.96999 0C7.32588 0.000322287 4.79017 1.02181 2.92051 2.83981C1.05084 4.65782 0.000331445 7.12347 0 9.69452C0 13.9754 2.875 17.6035 6.78874 18.9126C7.27874 18.9721 7.46124 18.6743 7.46124 18.4361V16.7709C4.70999 17.3665 4.09874 15.4631 4.09874 15.4631C3.66999 14.3327 2.9975 14.0349 2.9975 14.0349C2.08 13.4406 3.0575 13.4406 3.0575 13.4406C4.03624 13.5001 4.58749 14.4518 4.58749 14.4518C5.50499 15.9383 6.91124 15.5214 7.46249 15.2844C7.52249 14.6305 7.82874 14.2148 8.07374 13.9766C5.87124 13.7384 3.54749 12.9058 3.54749 9.1585C3.54749 8.08889 3.91374 7.25509 4.58749 6.54161C4.52499 6.36294 4.15874 5.35289 4.70999 4.04384C4.70999 4.04384 5.56624 3.80561 7.46124 5.0551C8.25624 4.81687 9.11374 4.75731 9.96999 4.75731C10.8262 4.75731 11.6825 4.87643 12.4775 5.0551C14.3737 3.80682 15.23 4.04384 15.23 4.04384C15.78 5.35289 15.4125 6.36294 15.3512 6.60117C16.0248 7.31474 16.3963 8.24945 16.3912 9.21806C16.3912 12.9653 14.0662 13.7384 11.8662 13.9766C12.2325 14.2732 12.5387 14.8675 12.5387 15.7597V18.4361C12.5387 18.6743 12.7212 18.9709 13.2112 18.9126C15.1937 18.262 16.9158 17.022 18.134 15.3678C19.3523 13.7137 20.005 11.7291 20 9.69452C19.9387 4.34163 15.475 0 9.96999 0Z" fill="white"/>
</svg>
