<svg width="20" height="20" viewBox="0 0 20 20" fill="none" xmlns="http://www.w3.org/2000/svg">
    <path d="M9.6 0C4.298 0 0 4.27997 0 9.55972C0 14.8395 4.298 19.1194 9.6 19.1194C14.902 19.1194 19.2 14.8395 19.2 9.55972C19.2 4.27997 14.902 0 9.6 0ZM7.25 13.522H5.306V7.29227H7.25V13.522ZM6.266 6.5275C5.652 6.5275 5.255 6.09432 5.255 5.55858C5.255 5.01188 5.664 4.59165 6.291 4.59165C6.918 4.59165 7.302 5.01188 7.314 5.55858C7.314 6.09432 6.918 6.5275 6.266 6.5275ZM14.35 13.522H12.406V10.0696C12.406 9.26596 12.124 8.72026 11.421 8.72026C10.884 8.72026 10.565 9.0897 10.424 9.4452C10.372 9.57167 10.359 9.75092 10.359 9.92916V13.521H8.414V9.2789C8.414 8.50118 8.389 7.85092 8.363 7.29128H10.052L10.141 8.15663H10.18C10.436 7.75034 11.063 7.15087 12.112 7.15087C13.391 7.15087 14.35 8.00427 14.35 9.83855V13.522Z" fill="white"/>
</svg>
